<!-- Generated by IcoMoon.io -->
<svg version="1.1" xmlns="http://www.w3.org/2000/svg" width="80" height="128" viewBox="0 0 80 128">
<title>steps</title>
<path d="M17 8c-9.389 0-17 12.536-17 28 0 8.604 2.127 17.73 4.25 31.817 1.662 11.036 5.709 20.183 12.75 20.183s11.76-6.099 11.76-17.246c0-3.796-3.121-9.844-3.26-15.004-0.253-9.307 6.241-13.021 6.241-21.625 0-15.464-5.354-26.125-14.741-26.125zM62.871 40c-9.388 0-14.741 10.661-14.741 26.125 0 8.604 6.494 12.317 6.241 21.625-0.139 5.16-3.26 11.207-3.26 15.004 0 11.148 4.719 17.246 11.76 17.246s11.088-9.146 12.75-20.183c2.123-14.088 4.25-23.214 4.25-31.817 0-15.464-7.611-28-17-28z"></path>
</svg>
