<!-- Generated by IcoMoon.io -->
<svg version="1.1" xmlns="http://www.w3.org/2000/svg" width="112" height="128" viewBox="0 0 112 128">
<title>unmute</title>
<path d="M16 48h-16v32h16l32 24h8v-80h-8l-32 24zM67.314 52.686c-1.562-1.562-4.095-1.562-5.657 0s-1.562 4.095 0 5.657c3.124 3.124 3.124 8.189 0 11.314-1.562 1.562-1.562 4.095 0 5.657s4.095 1.562 5.657 0c6.248-6.249 6.248-16.379 0-22.627zM78.627 41.373c-1.562-1.562-4.095-1.562-5.657 0s-1.562 4.095 0 5.657c9.373 9.373 9.373 24.569 0 33.941-1.562 1.562-1.562 4.095 0 5.657s4.095 1.562 5.657 0c12.497-12.497 12.497-32.758 0-45.255zM89.941 30.059c-1.562-1.562-4.095-1.562-5.657 0s-1.562 4.095 0 5.657c15.621 15.621 15.621 40.948 0 56.569-1.562 1.562-1.562 4.095 0 5.657s4.095 1.562 5.657 0c18.745-18.745 18.745-49.137 0-67.882z"></path>
</svg>
